# xmcd
#
# Track frame offsets:
#	150
#	10447
#	26687
#	39237
#	53037
#	69190
#	82015
#	100055
#	113482
#	134067
#	150355
#	166115
#	180025
#	191470
#
# Disc length: 2762 seconds
#
# Revision: 0
# Processed by: cddbd v1.5.2PL0 Copyright (c) Steve Scherf et al.
# Submitted via: audiograbber 1.83.01
#
DISCID=9d0ac80e
DTITLE=Garth Brooks - Sevens
DYEAR=1997
DGENRE=Country
TTITLE0=Longneck Bottle
TTITLE1=How You Ever Gonna Know
TTITLE2=She's Gonna Make It
TTITLE3=I Don't Have To Wonder
TTITLE4=Two Piña Coladas
TTITLE5=Cowboy Cadillac
TTITLE6=Fit For A King
TTITLE7=Do What You Gotta Do
TTITLE8=You Move Me
TTITLE9=In Another's Eyes (Duet with Trisha Yearwood)
TTITLE10=When There's No One Around
TTITLE11=A Friend To Me
TTITLE12=Take The Keys To My Heart
TTITLE13=Belleau Wood
EXTD=
EXTT0=
EXTT1=
EXTT2=
EXTT3=
EXTT4=
EXTT5=
EXTT6=
EXTT7=
EXTT8=
EXTT9=
EXTT10=
EXTT11=
EXTT12=
EXTT13=
PLAYORDER=
